<?xml version="1.0" standalone="no"?>
<!DOCTYPE svg PUBLIC "-//W3C//DTD SVG 20010904//EN"
 "http://www.w3.org/TR/2001/REC-SVG-20010904/DTD/svg10.dtd">
<svg version="1.0" xmlns="http://www.w3.org/2000/svg"
 width="516.000000pt" height="516.000000pt" viewBox="0 0 516.000000 516.000000"
 preserveAspectRatio="xMidYMid meet">
<metadata>
Created by potrace 1.14, written by Peter Selinger 2001-2017
</metadata>
<g transform="translate(0.000000,516.000000) scale(0.100000,-0.100000)"
fill="#000000" stroke="none">
<path d="M2445 4974 c-606 -45 -1112 -268 -1532 -677 -145 -141 -224 -236
-331 -397 -76 -114 -198 -337 -190 -346 3 -2 25 20 49 48 171 205 472 473 697
622 276 182 507 268 722 270 117 1 186 -13 275 -55 224 -106 385 -370 470
-769 92 -429 157 -652 253 -867 180 -401 430 -652 727 -728 99 -26 266 -24
365 3 135 37 227 87 306 166 168 169 467 626 573 876 18 41 37 84 42 95 8 16
0 48 -31 140 -297 860 -1044 1477 -1935 1599 -113 15 -372 27 -460 20z m1713
-1079 l29 -100 77 -26 c42 -15 79 -28 81 -31 3 -2 -31 -23 -75 -47 -43 -23
-81 -50 -84 -59 -2 -9 -14 -62 -26 -117 -44 -204 -37 -202 -84 -25 l-42 155
-83 43 c-45 24 -80 46 -78 49 3 2 41 17 84 31 l78 27 39 108 c21 59 42 104 47
100 4 -4 21 -53 37 -108z m-538 -370 l44 -146 113 -35 c62 -20 113 -39 113
-43 0 -3 -51 -32 -112 -63 l-113 -56 -44 -193 c-24 -107 -47 -202 -50 -212 -5
-12 -28 55 -67 193 l-59 212 -120 61 -120 60 110 34 c61 19 115 36 120 37 9 3
49 101 116 284 5 13 13 21 17 18 4 -3 28 -70 52 -151z"/>
<path d="M362 3495 c-17 -37 -14 -45 4 -12 9 16 14 31 11 33 -2 2 -9 -7 -15
-21z"/>
<path d="M326 3403 c-6 -14 -5 -15 5 -6 7 7 10 15 7 18 -3 3 -9 -2 -12 -12z"/>
<path d="M1232 2769 c-213 -32 -442 -148 -859 -433 l-163 -111 6 -40 c11 -73
82 -339 112 -420 222 -597 641 -1066 1196 -1339 230 -113 456 -183 711 -222
167 -26 523 -26 685 -1 516 81 950 294 1314 647 405 393 647 881 721 1458 30
231 38 237 -204 -150 -417 -663 -879 -1191 -1204 -1372 -157 -88 -339 -132
-507 -123 -535 30 -783 334 -985 1207 -139 601 -353 882 -687 904 -40 3 -101
0 -136 -5z"/>
</g>
</svg>
